<?xml version="1.0" encoding="utf-8"?>
<!-- Generator: Adobe Illustrator 17.0.0, SVG Export Plug-In . SVG Version: 6.00 Build 0)  -->
<!DOCTYPE svg PUBLIC "-//W3C//DTD SVG 1.1//EN" "http://www.w3.org/Graphics/SVG/1.1/DTD/svg11.dtd">
<svg version="1.1" id="Layer_1" xmlns="http://www.w3.org/2000/svg" xmlns:xlink="http://www.w3.org/1999/xlink" x="0px" y="0px"
	 width="14px" height="14px" viewBox="400.001 480.507 200.001 174.985"
	 enable-background="new 400.001 480.507 200.001 174.985" xml:space="preserve">
<path fill="#414042" d="M400.421,560.197c2.076,19.445,11.823,37.045,27.458,49.553c20.837,16.672,49.369,21.448,74.457,12.446
	c9.479-3.396,18.127-8.648,25.406-15.39l60.852,48.686l11.408-13.473l-60.877-48.698c8.99-13.68,12.947-29.827,11.164-46.341
	c-2.076-19.445-11.823-37.034-27.457-49.541c-20.838-16.685-49.37-21.448-74.458-12.458c-12.288,4.409-23.183,11.945-31.537,21.79
	C404.158,521.771,398.32,540.751,400.421,560.197z M454.822,501.446c19.079-6.84,40.771-3.2,56.626,9.466
	c11.872,9.503,19.274,22.877,20.862,37.657s-2.859,29.204-12.483,40.6c-6.352,7.5-14.608,13.216-23.94,16.563
	c-19.078,6.84-40.771,3.212-56.625-9.454c-11.872-9.515-19.273-22.889-20.861-37.668s2.857-29.192,12.482-40.6
	C437.234,510.521,445.491,504.793,454.822,501.446z"/>
</svg>
